<?xml version="1.0" standalone="no"?>
<!DOCTYPE svg PUBLIC "-//W3C//DTD SVG 20010904//EN"
 "http://www.w3.org/TR/2001/REC-SVG-20010904/DTD/svg10.dtd">
<svg version="1.0" xmlns="http://www.w3.org/2000/svg"
 width="500.000000pt" height="500.000000pt" viewBox="0 0 500.000000 500.000000"
 preserveAspectRatio="xMidYMid meet">
<metadata>
Created by potrace 1.14, written by Peter Selinger 2001-2017
</metadata>
<g transform="translate(0.000000,500.000000) scale(0.100000,-0.100000)"
fill="#000000" stroke="none">
<path d="M2336 4609 c5 -9 -21 -19 -49 -19 -20 0 -20 -1 5 -27 20 -21 25 -36
22 -58 -2 -16 -1 -24 2 -17 3 6 10 10 15 6 5 -3 9 0 9 5 0 16 16 13 34 -5 9
-8 16 -12 16 -7 0 4 3 19 7 32 5 19 3 22 -8 16 -8 -5 -3 4 10 18 13 15 28 24
34 20 6 -3 7 -1 3 5 -4 7 -16 12 -26 12 -27 0 -51 11 -45 20 3 5 -3 8 -14 7
-11 0 -18 -4 -15 -8z"/>
<path d="M2139 4555 c-1 -5 -1 -14 0 -18 1 -4 -13 -14 -31 -22 -32 -14 -32
-16 -6 -19 7 0 15 -14 18 -31 3 -16 9 -25 12 -19 4 6 20 10 36 9 24 -1 28 2
24 21 -2 12 1 25 7 28 18 12 12 26 -10 26 -12 0 -28 8 -35 18 -7 9 -14 13 -15
7z"/>
<path d="M2515 4530 c-16 -4 -24 -8 -17 -9 7 0 10 -6 7 -11 -3 -6 1 -13 9 -16
9 -3 16 -10 16 -16 0 -5 -4 -6 -10 -3 -5 3 -10 4 -10 2 0 -3 15 -14 33 -25
l34 -19 -5 22 c-2 13 2 26 9 30 8 6 10 4 4 -6 -4 -8 1 -5 12 6 l20 20 -28 9
c-16 5 -29 13 -29 17 0 10 -2 10 -45 -1z"/>
<path d="M3275 4405 c-180 -32 -393 -110 -563 -208 -51 -29 -161 -100 -244
-157 -289 -199 -477 -306 -578 -329 -152 -35 -304 7 -488 133 -46 32 -87 55
-90 51 -15 -15 67 -143 138 -216 155 -158 340 -206 555 -144 155 45 298 120
607 317 103 65 237 144 297 174 409 203 795 205 973 4 51 -58 101 -156 135
-267 23 -78 26 -105 27 -238 0 -132 -2 -158 -23 -215 -26 -76 -92 -186 -151
-252 -73 -84 -217 -182 -348 -238 l-67 -29 -12 104 c-13 122 -50 204 -117 261
-108 93 -249 84 -693 -41 -368 -103 -529 -123 -746 -90 -109 16 -246 59 -336
105 -65 32 -76 36 -66 20 24 -38 234 -152 345 -188 236 -75 438 -74 826 2 419
83 515 93 562 61 91 -64 162 -429 162 -837 0 -71 4 -118 10 -118 5 0 12 10 14
23 9 42 36 352 36 417 0 103 1 104 89 129 191 55 352 151 492 290 214 214 292
466 244 781 -54 357 -241 595 -535 680 -97 29 -335 36 -455 15z"/>
<path d="M1260 4359 c-30 -5 -97 -30 -149 -55 -257 -125 -396 -396 -378 -738
10 -194 78 -396 181 -539 86 -120 247 -262 385 -340 l53 -30 -4 -146 c-3 -81
-18 -232 -33 -338 -16 -106 -26 -195 -24 -198 3 -2 97 27 210 66 316 109 483
148 724 169 137 11 270 13 368 3 l68 -6 -20 -21 c-45 -49 -130 -263 -197 -495
-62 -214 -163 -401 -218 -401 -51 0 -25 221 45 395 16 39 29 76 29 82 0 21
-58 44 -103 41 -48 -3 -24 35 -196 -318 -125 -258 -201 -353 -201 -252 0 81
71 312 125 409 14 25 25 51 25 58 0 21 -38 47 -78 52 -39 5 -41 4 -76 -48 -64
-97 -133 -295 -151 -435 -15 -120 58 -224 158 -224 60 0 111 76 240 360 16 35
16 35 10 -41 -4 -47 -1 -89 6 -112 14 -40 68 -93 106 -103 49 -12 109 30 169
120 l26 39 0 -37 c0 -68 27 -99 105 -120 34 -9 46 8 56 85 5 41 18 106 30 144
20 64 22 68 31 45 32 -84 74 -153 107 -176 44 -30 106 -32 159 -5 38 19 104
84 137 134 19 30 35 35 35 11 0 -63 77 -134 146 -134 36 0 47 6 78 40 36 40
101 161 151 280 32 78 47 96 34 44 -33 -143 27 -264 130 -264 66 0 167 129
262 337 l41 87 -22 18 c-12 10 -25 18 -29 18 -3 0 -30 -49 -59 -109 -68 -137
-119 -206 -152 -206 -25 0 -25 0 -24 95 2 99 31 224 74 313 28 57 25 72 -14
91 -41 19 -86 21 -109 4 -9 -7 -39 -65 -68 -128 -151 -337 -264 -520 -286
-464 -17 46 58 323 117 432 17 31 30 62 30 69 0 17 -59 53 -87 53 -12 0 -32
-10 -44 -22 -30 -33 -87 -149 -120 -247 -62 -182 -189 -351 -264 -351 -31 0
-71 34 -83 70 -10 28 -9 30 26 47 89 41 195 187 209 288 12 88 -47 175 -119
175 -57 0 -149 -100 -236 -258 -50 -91 -47 -71 20 127 55 162 109 285 139 317
17 18 19 26 10 43 -6 11 -19 25 -29 30 -16 10 -15 10 3 11 29 0 249 -37 320
-55 99 -24 96 -16 -10 26 -138 54 -284 95 -455 126 -131 24 -169 27 -395 27
-279 1 -358 -9 -584 -70 -68 -19 -126 -33 -128 -31 -1 2 0 45 3 95 l7 92 81
25 c570 172 984 167 1454 -17 57 -22 106 -38 109 -35 7 8 -164 93 -267 133
-114 44 -241 78 -385 105 -260 49 -628 24 -977 -66 -25 -7 -27 -5 -33 42 -21
146 -84 388 -135 518 -39 97 -112 245 -121 245 -4 0 1 -26 12 -57 11 -32 29
-96 41 -143 20 -85 59 -312 53 -318 -6 -6 -121 96 -176 155 -145 157 -215 327
-226 549 -9 180 35 344 122 450 48 58 138 116 242 155 80 29 98 33 198 33 182
0 395 -55 507 -131 28 -18 53 -31 56 -28 10 10 -55 80 -124 133 -87 67 -242
143 -358 177 -102 29 -233 39 -316 24z m1557 -2580 c-7 -51 -55 -151 -98 -203
-34 -40 -96 -73 -110 -59 -17 17 94 215 156 276 42 41 59 36 52 -14z"/>
<path d="M3996 2432 c-4 -6 -15 -45 -26 -88 -11 -42 -36 -113 -55 -158 -19
-45 -35 -85 -35 -89 0 -4 10 -7 22 -7 34 0 124 100 164 183 38 80 42 116 16
140 -23 21 -77 33 -86 19z"/>
<path d="M4274 2209 c-47 -13 -66 -43 -133 -204 -65 -154 -68 -177 -25 -183
15 -2 27 16 59 90 l40 93 8 -144 c4 -79 5 -146 2 -149 -3 -3 -49 0 -104 7 -86
11 -102 11 -128 -3 -122 -63 75 -283 262 -294 108 -6 160 53 153 174 l-3 64
40 26 c88 58 191 182 183 220 -2 9 -13 20 -24 25 -18 6 -27 -1 -60 -53 -24
-36 -61 -76 -93 -99 -50 -36 -56 -38 -65 -22 -6 10 -10 83 -11 163 0 133 2
148 23 183 12 21 22 42 22 47 0 14 -62 57 -90 63 -14 2 -39 1 -56 -4z m-51
-583 c25 5 27 3 27 -29 0 -38 -21 -67 -49 -67 -27 0 -115 47 -144 78 l-27 28
83 -8 c45 -4 94 -5 110 -2z"/>
<path d="M1574 2003 c-53 -131 -140 -270 -256 -408 -84 -100 -214 -229 -205
-204 49 144 108 339 113 377 8 61 -11 101 -67 141 -111 81 -275 50 -413 -80
-65 -60 -118 -146 -130 -208 -13 -73 44 -171 100 -171 20 0 24 5 24 33 0 65
93 221 182 303 74 69 154 104 172 75 8 -13 -17 -103 -69 -247 -36 -97 -54
-134 -80 -158 -39 -37 -52 -77 -37 -110 8 -19 5 -38 -15 -92 -34 -95 -73 -243
-73 -280 0 -38 42 -81 94 -95 50 -14 62 -2 69 69 2 31 15 94 27 138 l23 82 66
-54 c133 -108 297 -170 380 -145 51 15 98 56 107 93 l6 27 -51 -6 c-39 -4 -65
0 -113 17 -76 27 -179 93 -230 146 l-37 39 95 85 c233 207 423 452 439 567 6
41 -3 57 -45 86 -39 27 -59 21 -76 -20z"/>
</g>
</svg>
